<svg height="480pt" viewBox="0 -16 480.09311 480" width="480pt" xmlns="http://www.w3.org/2000/svg" xmlns:xlink="http://www.w3.org/1999/xlink"><linearGradient id="lg1"><stop offset="0" stop-color="#fff200"/><stop offset="1" stop-color="#cd118c"/></linearGradient><linearGradient id="linear0" gradientUnits="userSpaceOnUse" x1="1.336" x2="533.128" xlink:href="#lg1" y1="483.776" y2="-32.608"/><linearGradient id="linear1" gradientUnits="userSpaceOnUse" x1="-18.632" x2="513.16" xlink:href="#lg1" y1="463.216" y2="-53.16"/><path d="m464.816406 252.121094c6.945313-8.382813 9.097656-19.742188 5.703125-30.085938-3.394531-10.339844-11.863281-18.214844-22.421875-20.851562v-40.886719l19.367188-8.992187c2.679687-1.242188 4.460937-3.859376 4.628906-6.808594.167969-2.949219-1.304688-5.753906-3.828125-7.289063l-224-136c-2.554687-1.546875-5.753906-1.546875-8.304687 0l-224 136c-2.523438 1.535157-3.996094 4.339844-3.832032 7.289063.167969 2.949218 1.949219 5.566406 4.632813 6.808594l75.335937 34.992187v55.113281c-46.367187 7.144532-82.199218 44.46875-87.445312 91.089844s21.390625 90.976562 65.011718 108.25c43.617188 17.273438 93.402344 3.183594 121.496094-34.390625 46.628906 17.523437 98.890625 11.019531 139.804688-17.390625 40.914062-28.410156 65.261718-75.109375 65.132812-124.921875v-77.75l40-18.570313v33.457032c-10.5625 2.636718-19.03125 10.511718-22.425781 20.851562-3.394531 10.34375-1.238281 21.703125 5.703125 30.085938l-15.199219 98.710937c-.355469 2.308594.316407 4.660157 1.839844 6.429688 1.523437 1.773437 3.746094 2.789062 6.082031 2.785156h64c2.332032 0 4.550782-1.019531 6.066406-2.789063 1.519532-1.773437 2.191407-4.117187 1.835938-6.425781zm-224.71875-234.710938 207.03125 125.695313-15.960937 7.414062-159.382813-25.527343c-1.664062-15.871094-14.863281-28.035157-30.820312-28.402344-15.953125-.367188-29.695313 11.175781-32.089844 26.957031-2.390625 15.777344 7.308594 30.875 22.65625 35.257813 15.347656 4.378906 31.554688-3.324219 37.851562-17.988282l135.832032 21.742188-165.117188 76.691406-207.035156-96.144531zm16 110.636719c0 8.839844-7.164062 16-16 16-8.839844 0-16-7.160156-16-16 0-8.835937 7.160156-16 16-16 8.835938 0 16 7.164063 16 16zm-152 304c-48.601562 0-88-39.398437-88-88 0-48.597656 39.398438-88 88-88 48.597656 0 88 39.402344 88 88-.058594 48.578125-39.425781 87.945313-88 88zm272-168c.050782 43.941406-21.152344 85.191406-56.914062 110.71875-35.761719 25.53125-81.660156 32.1875-123.199219 17.867187 17.089844-32.21875 16.035156-71.042968-2.777344-102.289062-18.816406-31.242188-52.636719-50.332031-89.109375-50.296875v-46.320313l132.628906 61.601563c2.136719.992187 4.601563.992187 6.738282 0l132.632812-61.601563zm64-48c8.835938 0 16 7.164063 16 16 0 8.839844-7.164062 16-16 16-8.839844 0-16-7.160156-16-16 0-8.835937 7.160156-16 16-16zm8 128v-56h-16v56h-14.671875l12.574219-81.78125c6.519531 2.378906 13.671875 2.378906 20.191406 0l12.578125 81.78125zm0 0" fill="url(#linear0)"/><path d="m120.097656 304.046875c8.835938 0 16 7.164063 16 16h16c0-17.671875-14.328125-32-32-32h-8v-16h-16v16h-8c-17.675781 0-32 14.328125-32 32 0 17.675781 14.324219 32 32 32h8v32h-8c-8.839844 0-16-7.160156-16-16h-16c0 17.675781 14.324219 32 32 32h8v16h16v-16h8c17.671875 0 32-14.324219 32-32 0-17.671875-14.328125-32-32-32h-8v-32zm0 48c8.835938 0 16 7.164063 16 16 0 8.839844-7.164062 16-16 16h-8v-32zm-24-16h-8c-8.839844 0-16-7.160156-16-16 0-8.835937 7.160156-16 16-16h8zm0 0" fill="url(#linear1)"/></svg>